<?xml version="1.0" encoding="UTF-8" standalone="no"?>
<!DOCTYPE svg PUBLIC "-//W3C//DTD SVG 1.1//EN" "http://www.w3.org/Graphics/SVG/1.1/DTD/svg11.dtd">
<svg width="100%" height="100%" viewBox="0 0 51 65" version="1.1" xmlns="http://www.w3.org/2000/svg" xmlns:xlink="http://www.w3.org/1999/xlink" xml:space="preserve" xmlns:serif="http://www.serif.com/" style="fill-rule:evenodd;clip-rule:evenodd;stroke-linecap:round;stroke-linejoin:round;stroke-miterlimit:1.5;">
    <g transform="matrix(1,0,0,1,-525.97,-1987.41)">
        <g transform="matrix(1,0,0,1,-5895.02,1691.94)">
            <g id="Radierer" transform="matrix(1,0,0,1,9,-81.7058)">
                <g transform="matrix(0.429197,0.247797,-0.247797,0.429197,6448.24,52.2117)">
                    <path d="M313.123,637.872L374.508,637.872" style="fill:none;stroke:white;stroke-width:6.66px;"/>
                </g>
                <g transform="matrix(0.429197,0.247797,-0.247797,0.429197,6439.07,68.0961)">
                    <path d="M313.123,637.872L374.508,637.872" style="fill:none;stroke:white;stroke-width:6.66px;"/>
                </g>
                <g transform="matrix(0.429197,0.247797,-0.247797,0.429197,6449.33,50.3291)">
                    <path d="M350.857,578.119L328.469,578.119C319.999,578.119 313.123,584.996 313.123,593.465L313.123,682.279C313.123,690.749 319.999,697.626 328.469,697.626L359.162,697.626C367.632,697.626 374.508,690.749 374.508,682.279L374.508,601.77L350.857,578.119Z" style="fill:none;stroke:white;stroke-width:6.66px;"/>
                </g>
            </g>
        </g>
    </g>
</svg>
