<?xml version="1.0" encoding="UTF-8" standalone="no"?>
<!DOCTYPE svg PUBLIC "-//W3C//DTD SVG 1.1//EN" "http://www.w3.org/Graphics/SVG/1.1/DTD/svg11.dtd">
<svg width="100%" height="100%" viewBox="0 0 76 79" version="1.1" xmlns="http://www.w3.org/2000/svg" xmlns:xlink="http://www.w3.org/1999/xlink" xml:space="preserve" xmlns:serif="http://www.serif.com/" style="fill-rule:evenodd;clip-rule:evenodd;stroke-linecap:round;stroke-linejoin:round;stroke-miterlimit:1.5;">
    <g transform="matrix(1,0,0,1,-1054.32,-1994.25)">
        <g transform="matrix(1,0,0,1,-5895.02,1691.94)">
            <g transform="matrix(1,0,0,1,12.4041,-121.067)">
                <g transform="matrix(0.605313,0,0,1,6174.22,-128.638)">
                    <path d="M1284.28,595.233C1280.52,594.109 1264.56,592.2 1274.27,578.255C1294.49,549.229 1388.45,543.956 1382.06,572.233C1378.35,588.607 1349.69,600.143 1304.77,598.668" style="fill:none;stroke:white;stroke-width:3.7px;"/>
                </g>
                <g transform="matrix(1.46836,0,0,1.46836,5066.4,-437.387)">
                    <circle cx="1288.22" cy="616.774" r="4.125" style="fill:none;stroke:white;stroke-width:2.25px;"/>
                </g>
                <g transform="matrix(1,0,0,1,5668.34,-130.805)">
                    <path d="M1283.87,600.999C1273.38,608.529 1254.78,631.25 1294.5,630.752" style="fill:none;stroke:white;stroke-width:3.3px;"/>
                </g>
            </g>
        </g>
    </g>
</svg>
